<?xml version="1.0" standalone="no"?><!DOCTYPE svg PUBLIC "-//W3C//DTD SVG 1.1//EN" "http://www.w3.org/Graphics/SVG/1.1/DTD/svg11.dtd"><svg t="1765263321454" class="icon" viewBox="0 0 1248 1024" version="1.1" xmlns="http://www.w3.org/2000/svg" p-id="8200" data-spm-anchor-id="a313x.search_index.0.i5.46f23a81cbmv4b" xmlns:xlink="http://www.w3.org/1999/xlink" width="243.75" height="200"><path d="M109.318217 402.132444a49.951207 49.951207 0 0 1 99.402903 9.815413C176.427664 739.577825 364.918545 924.097585 652.113012 924.097585c45.330721 0 89.712368-6.893267 132.070992-20.28019a49.951207 49.951207 0 1 1 30.120578 95.256953c-52.074134 16.458923-106.595876 24.925652-162.19157 24.925652-343.614355 0-581.182297-232.52287-542.769819-621.867556z" fill="#ffffff" p-id="8201" data-spm-anchor-id="a313x.search_index.0.i1.46f23a81cbmv4b" class=""></path><path d="M159.019669 225.180292l157.546107 201.378293H1.473561z" fill="#ffffff" p-id="8202" data-spm-anchor-id="a313x.search_index.0.i2.46f23a81cbmv4b" class=""></path><path d="M1139.461966 621.867805a49.951207 49.951207 0 0 1-99.402903-9.815412C1072.352519 284.422424 883.861638 99.902664 596.667172 99.902664c-45.330721 0-89.712368 6.893267-132.070993 20.280191A49.951207 49.951207 0 1 1 434.500577 24.925902 537.100357 537.100357 0 0 1 596.692147 0.00025c343.614355 0 581.182297 232.52287 542.769819 621.867555z" fill="#ffffff" p-id="8203" data-spm-anchor-id="a313x.search_index.0.i0.46f23a81cbmv4b" class=""></path><path d="M1089.760515 798.819957l-157.546108-201.378292h315.092216z" fill="#ffffff" p-id="8204" data-spm-anchor-id="a313x.search_index.0.i3.46f23a81cbmv4b" class=""></path></svg>